<svg width="984" height="608" viewBox="0 0 984 608" fill="none" xmlns="http://www.w3.org/2000/svg">
<path d="M123.438 442.484C100.391 435.974 83.0078 425.232 71.2891 410.258C59.7005 395.414 53.9062 375.753 53.9062 351.273V312.406C53.9062 280.766 40.1042 264.945 12.5 264.945V236.625C40.1042 236.625 53.9062 220.87 53.9062 189.359V148.734C54.1667 124.906 59.9609 105.701 71.2891 91.1172C82.7474 76.4036 100.13 65.7266 123.438 59.0859L130.859 81.5469C103.646 90.2708 90.0391 112.992 90.0391 149.711V189.164C90.0391 218.721 79.1667 239.294 57.4219 250.883C79.1667 262.602 90.0391 283.37 90.0391 313.188V353.422C90.4297 389.229 104.036 411.43 130.859 420.023L123.438 442.484Z" fill="#FFAB09"/>
<path d="M790.711 420.023C817.143 411.56 830.815 390.01 831.727 355.375V312.406C831.727 282.328 843.51 261.82 867.078 250.883C843.51 240.206 831.727 219.698 831.727 189.359V149.711C831.727 112.992 818.12 90.2708 790.906 81.5469L798.328 59.0859C821.375 65.5964 838.693 76.2083 850.281 90.9219C861.87 105.505 867.729 124.841 867.859 148.93V189.945C867.859 221.065 881.661 236.625 909.266 236.625V264.945C881.661 264.945 867.859 280.766 867.859 312.406V351.859C867.859 376.339 861.935 395.935 850.086 410.648C838.367 425.362 821.115 435.974 798.328 442.484L790.711 420.023Z" fill="#FFAB09"/>
<path d="M264.097 209.8C257.364 209.8 251.497 208.367 246.497 205.5C241.497 202.567 237.664 198.4 234.997 193C232.331 187.533 230.997 181.1 230.997 173.7C230.997 166.367 232.331 160 234.997 154.6C237.664 149.133 241.497 144.967 246.497 142.1C251.497 139.167 257.364 137.7 264.097 137.7C268.497 137.7 272.664 138.4 276.597 139.8C280.531 141.133 283.964 143.1 286.897 145.7C288.164 146.7 288.797 148.033 288.797 149.7C288.797 150.9 288.464 151.933 287.797 152.8C287.131 153.6 286.331 154 285.397 154C284.264 154 283.164 153.567 282.097 152.7C278.897 150.3 275.964 148.633 273.297 147.7C270.697 146.7 267.731 146.2 264.397 146.2C257.064 146.2 251.431 148.567 247.497 153.3C243.564 158.033 241.597 164.833 241.597 173.7C241.597 182.633 243.564 189.467 247.497 194.2C251.431 198.933 257.064 201.3 264.397 201.3C267.597 201.3 270.497 200.8 273.097 199.8C275.764 198.8 278.764 197.133 282.097 194.8C283.431 193.933 284.531 193.5 285.397 193.5C286.331 193.5 287.131 193.933 287.797 194.8C288.464 195.6 288.797 196.6 288.797 197.8C288.797 199.467 288.164 200.8 286.897 201.8C283.964 204.4 280.531 206.4 276.597 207.8C272.664 209.133 268.497 209.8 264.097 209.8ZM320.096 209.7C315.296 209.7 311.063 208.667 307.396 206.6C303.796 204.533 300.996 201.6 298.996 197.8C297.063 193.933 296.096 189.467 296.096 184.4C296.096 179.267 297.063 174.8 298.996 171C300.996 167.133 303.796 164.167 307.396 162.1C311.063 160.033 315.296 159 320.096 159C324.896 159 329.096 160.033 332.696 162.1C336.363 164.167 339.163 167.133 341.096 171C343.096 174.8 344.096 179.267 344.096 184.4C344.096 189.467 343.096 193.933 341.096 197.8C339.163 201.6 336.363 204.533 332.696 206.6C329.096 208.667 324.896 209.7 320.096 209.7ZM320.096 201.7C324.563 201.7 327.963 200.233 330.296 197.3C332.696 194.367 333.896 190.067 333.896 184.4C333.896 178.8 332.696 174.533 330.296 171.6C327.896 168.6 324.496 167.1 320.096 167.1C315.696 167.1 312.296 168.6 309.896 171.6C307.496 174.533 306.296 178.8 306.296 184.4C306.296 190.067 307.463 194.367 309.796 197.3C312.196 200.233 315.63 201.7 320.096 201.7ZM395.242 138C396.775 138 398.008 138.433 398.942 139.3C399.875 140.167 400.342 141.333 400.342 142.8V204.6C400.342 206.133 399.875 207.333 398.942 208.2C398.075 209.067 396.875 209.5 395.342 209.5C393.808 209.5 392.575 209.067 391.642 208.2C390.775 207.333 390.342 206.133 390.342 204.6V200.6C388.875 203.533 386.742 205.8 383.942 207.4C381.142 208.933 377.908 209.7 374.242 209.7C370.042 209.7 366.275 208.633 362.942 206.5C359.675 204.367 357.108 201.367 355.242 197.5C353.442 193.633 352.542 189.2 352.542 184.2C352.542 179.133 353.442 174.7 355.242 170.9C357.108 167.1 359.675 164.167 362.942 162.1C366.208 160.033 369.975 159 374.242 159C377.908 159 381.108 159.8 383.842 161.4C386.642 162.933 388.775 165.133 390.242 168V142.6C390.242 141.2 390.675 140.1 391.542 139.3C392.475 138.433 393.708 138 395.242 138ZM376.642 201.7C380.975 201.7 384.342 200.2 386.742 197.2C389.142 194.2 390.342 189.933 390.342 184.4C390.342 178.867 389.142 174.6 386.742 171.6C384.408 168.6 381.042 167.1 376.642 167.1C372.242 167.1 368.808 168.6 366.342 171.6C363.942 174.533 362.742 178.733 362.742 184.2C362.742 189.667 363.975 193.967 366.442 197.1C368.908 200.167 372.308 201.7 376.642 201.7ZM452.624 196.7C453.557 196.7 454.324 197.067 454.924 197.8C455.524 198.533 455.824 199.467 455.824 200.6C455.824 202.533 454.624 204.167 452.224 205.5C449.89 206.833 447.324 207.867 444.524 208.6C441.79 209.333 439.157 209.7 436.624 209.7C428.89 209.7 422.79 207.467 418.324 203C413.857 198.467 411.624 192.3 411.624 184.5C411.624 179.5 412.59 175.067 414.524 171.2C416.524 167.333 419.29 164.333 422.824 162.2C426.424 160.067 430.49 159 435.024 159C441.557 159 446.724 161.1 450.524 165.3C454.324 169.5 456.224 175.167 456.224 182.3C456.224 184.967 455.024 186.3 452.624 186.3H421.724C422.39 196.633 427.357 201.8 436.624 201.8C439.09 201.8 441.224 201.467 443.024 200.8C444.824 200.133 446.724 199.267 448.724 198.2C448.924 198.067 449.457 197.8 450.324 197.4C451.257 196.933 452.024 196.7 452.624 196.7ZM435.224 166.4C431.357 166.4 428.257 167.633 425.924 170.1C423.59 172.567 422.19 176.033 421.724 180.5H447.524C447.324 175.967 446.157 172.5 444.024 170.1C441.957 167.633 439.024 166.4 435.224 166.4ZM584.321 141.1C584.721 140.033 585.321 139.233 586.121 138.7C586.921 138.167 587.821 137.9 588.821 137.9C590.087 137.9 591.187 138.333 592.121 139.2C593.121 140 593.621 141.067 593.621 142.4C593.621 143.133 593.487 143.8 593.221 144.4L571.121 206.2C570.654 207.333 569.921 208.2 568.921 208.8C567.921 209.4 566.821 209.7 565.621 209.7C564.487 209.7 563.421 209.4 562.421 208.8C561.421 208.2 560.721 207.333 560.321 206.2L542.121 154.6L523.521 206.2C523.121 207.333 522.421 208.2 521.421 208.8C520.421 209.4 519.354 209.7 518.221 209.7C517.021 209.7 515.921 209.4 514.921 208.8C513.987 208.2 513.287 207.333 512.821 206.2L490.721 144.4C490.454 143.8 490.321 143.133 490.321 142.4C490.321 141.067 490.821 140 491.821 139.2C492.821 138.333 494.021 137.9 495.421 137.9C496.421 137.9 497.321 138.167 498.121 138.7C498.987 139.233 499.621 140.033 500.021 141.1L518.521 194.3L537.321 141.6C537.721 140.467 538.354 139.6 539.221 139C540.154 138.4 541.154 138.1 542.221 138.1C543.287 138.1 544.254 138.433 545.121 139.1C545.987 139.7 546.654 140.567 547.121 141.7L565.521 194.8L584.321 141.1ZM614.446 209.5C612.979 209.5 611.746 209.1 610.746 208.3C609.812 207.5 609.346 206.3 609.346 204.7V164.1C609.346 162.5 609.812 161.3 610.746 160.5C611.746 159.633 612.979 159.2 614.446 159.2C615.912 159.2 617.112 159.633 618.046 160.5C618.979 161.3 619.446 162.5 619.446 164.1V204.7C619.446 206.3 618.979 207.5 618.046 208.3C617.112 209.1 615.912 209.5 614.446 209.5ZM614.446 149.4C612.512 149.4 610.979 148.867 609.846 147.8C608.712 146.733 608.146 145.333 608.146 143.6C608.146 141.867 608.712 140.5 609.846 139.5C610.979 138.433 612.512 137.9 614.446 137.9C616.312 137.9 617.812 138.433 618.946 139.5C620.146 140.5 620.746 141.867 620.746 143.6C620.746 145.333 620.179 146.733 619.046 147.8C617.912 148.867 616.379 149.4 614.446 149.4ZM658.832 201.8C660.298 201.933 661.332 202.333 661.932 203C662.598 203.6 662.932 204.467 662.932 205.6C662.932 206.933 662.398 207.967 661.332 208.7C660.332 209.367 658.832 209.633 656.832 209.5L654.132 209.3C648.732 208.9 644.698 207.267 642.032 204.4C639.365 201.467 638.032 197.167 638.032 191.5V168H632.032C629.098 168 627.632 166.7 627.632 164.1C627.632 162.9 627.998 161.967 628.732 161.3C629.532 160.567 630.632 160.2 632.032 160.2H638.032V149.9C638.032 148.367 638.465 147.167 639.332 146.3C640.265 145.433 641.498 145 643.032 145C644.565 145 645.798 145.433 646.732 146.3C647.665 147.167 648.132 148.367 648.132 149.9V160.2H658.032C659.432 160.2 660.498 160.567 661.232 161.3C662.032 161.967 662.432 162.9 662.432 164.1C662.432 165.367 662.032 166.333 661.232 167C660.498 167.667 659.432 168 658.032 168H648.132V192.2C648.132 195.333 648.765 197.633 650.032 199.1C651.365 200.567 653.365 201.4 656.032 201.6L658.832 201.8ZM696.586 159C708.186 159 713.986 165.567 713.986 178.7V204.7C713.986 206.167 713.519 207.333 712.586 208.2C711.652 209.067 710.419 209.5 708.886 209.5C707.352 209.5 706.119 209.067 705.186 208.2C704.319 207.333 703.886 206.167 703.886 204.7V178.8C703.886 174.8 703.052 171.867 701.386 170C699.786 168.133 697.252 167.2 693.786 167.2C689.719 167.2 686.452 168.467 683.986 171C681.519 173.533 680.286 176.933 680.286 181.2V204.7C680.286 206.167 679.819 207.333 678.886 208.2C678.019 209.067 676.819 209.5 675.286 209.5C673.752 209.5 672.519 209.067 671.586 208.2C670.652 207.333 670.186 206.167 670.186 204.7V142.8C670.186 141.333 670.652 140.167 671.586 139.3C672.586 138.433 673.852 138 675.386 138C676.852 138 678.019 138.433 678.886 139.3C679.819 140.1 680.286 141.2 680.286 142.6V167.6C681.952 164.8 684.186 162.667 686.986 161.2C689.786 159.733 692.986 159 696.586 159Z" fill="black" fill-opacity="0.7"/>
<path d="M300.233 253.7V359H274.583V315.65H234.683V359H209.033V253.7H234.683V294.95H274.583V253.7H300.233ZM313.65 317C313.65 308.4 315.25 300.85 318.45 294.35C321.75 287.85 326.2 282.85 331.8 279.35C337.4 275.85 343.65 274.1 350.55 274.1C356.45 274.1 361.6 275.3 366 277.7C370.5 280.1 373.95 283.25 376.35 287.15V275.3H402V359H376.35V347.15C373.85 351.05 370.35 354.2 365.85 356.6C361.45 359 356.3 360.2 350.4 360.2C343.6 360.2 337.4 358.45 331.8 354.95C326.2 351.35 321.75 346.3 318.45 339.8C315.25 333.2 313.65 325.6 313.65 317ZM376.35 317.15C376.35 310.75 374.55 305.7 370.95 302C367.45 298.3 363.15 296.45 358.05 296.45C352.95 296.45 348.6 298.3 345 302C341.5 305.6 339.75 310.6 339.75 317C339.75 323.4 341.5 328.5 345 332.3C348.6 336 352.95 337.85 358.05 337.85C363.15 337.85 367.45 336 370.95 332.3C374.55 328.6 376.35 323.55 376.35 317.15ZM527.357 274.4C537.757 274.4 546.007 277.55 552.107 283.85C558.307 290.15 561.407 298.9 561.407 310.1V359H535.907V313.55C535.907 308.15 534.457 304 531.557 301.1C528.757 298.1 524.857 296.6 519.857 296.6C514.857 296.6 510.907 298.1 508.007 301.1C505.207 304 503.807 308.15 503.807 313.55V359H478.307V313.55C478.307 308.15 476.857 304 473.957 301.1C471.157 298.1 467.257 296.6 462.257 296.6C457.257 296.6 453.307 298.1 450.407 301.1C447.607 304 446.207 308.15 446.207 313.55V359H420.557V275.3H446.207V285.8C448.807 282.3 452.207 279.55 456.407 277.55C460.607 275.45 465.357 274.4 470.657 274.4C476.957 274.4 482.557 275.75 487.457 278.45C492.457 281.15 496.357 285 499.157 290C502.057 285.4 506.007 281.65 511.007 278.75C516.007 275.85 521.457 274.4 527.357 274.4ZM603.346 337.85H639.646V359H574.696V338.6L609.496 296.45H574.996V275.3H638.896V295.7L603.346 337.85ZM648.66 317C648.66 308.4 650.26 300.85 653.46 294.35C656.76 287.85 661.21 282.85 666.81 279.35C672.41 275.85 678.66 274.1 685.56 274.1C691.46 274.1 696.61 275.3 701.01 277.7C705.51 280.1 708.96 283.25 711.36 287.15V275.3H737.01V359H711.36V347.15C708.86 351.05 705.36 354.2 700.86 356.6C696.46 359 691.31 360.2 685.41 360.2C678.61 360.2 672.41 358.45 666.81 354.95C661.21 351.35 656.76 346.3 653.46 339.8C650.26 333.2 648.66 325.6 648.66 317ZM711.36 317.15C711.36 310.75 709.56 305.7 705.96 302C702.46 298.3 698.16 296.45 693.06 296.45C687.96 296.45 683.61 298.3 680.01 302C676.51 305.6 674.76 310.6 674.76 317C674.76 323.4 676.51 328.5 680.01 332.3C683.61 336 687.96 337.85 693.06 337.85C698.16 337.85 702.46 336 705.96 332.3C709.56 328.6 711.36 323.55 711.36 317.15Z" fill="black"/>
</svg>
